<svg width="174" height="110" viewBox="0 0 174 110" fill="none" xmlns="http://www.w3.org/2000/svg">
<g filter="url(#filter0_d)">
<path d="M5 101L62.5 1H135L122.5 21H83.5H69.5L58 41H112L99.5 61H46L35 81H62.5H89.5L77.5 101H5Z" fill="#F8BD1C"/>
<path d="M5 101L62.5 1H135L122.5 21H83.5H69.5L58 41H112L99.5 61H46L35 81H62.5H89.5L77.5 101H5Z" stroke="#F8BD1C"/>
</g>
<g filter="url(#filter1_d)">
<path d="M84 101.5L141.5 1H159.5L116 80.5H138.5H168.5L155.5 101.5H84Z" fill="#F8BD1C"/>
<path d="M84 101.5L141.5 1H159.5L116 80.5H138.5H168.5L155.5 101.5H84Z" stroke="#F8BD1C"/>
</g>
<defs>
<filter id="filter0_d" x="0.135742" y="0.5" width="139.766" height="109" filterUnits="userSpaceOnUse" color-interpolation-filters="sRGB">
<feFlood flood-opacity="0" result="BackgroundImageFix"/>
<feColorMatrix in="SourceAlpha" type="matrix" values="0 0 0 0 0 0 0 0 0 0 0 0 0 0 0 0 0 0 127 0"/>
<feOffset dy="4"/>
<feGaussianBlur stdDeviation="2"/>
<feColorMatrix type="matrix" values="0 0 0 0 0 0 0 0 0 0 0 0 0 0 0 0 0 0 0.25 0"/>
<feBlend mode="normal" in2="BackgroundImageFix" result="effect1_dropShadow"/>
<feBlend mode="normal" in="SourceGraphic" in2="effect1_dropShadow" result="shape"/>
</filter>
<filter id="filter1_d" x="79.1379" y="0.5" width="94.2597" height="109.5" filterUnits="userSpaceOnUse" color-interpolation-filters="sRGB">
<feFlood flood-opacity="0" result="BackgroundImageFix"/>
<feColorMatrix in="SourceAlpha" type="matrix" values="0 0 0 0 0 0 0 0 0 0 0 0 0 0 0 0 0 0 127 0"/>
<feOffset dy="4"/>
<feGaussianBlur stdDeviation="2"/>
<feColorMatrix type="matrix" values="0 0 0 0 0 0 0 0 0 0 0 0 0 0 0 0 0 0 0.25 0"/>
<feBlend mode="normal" in2="BackgroundImageFix" result="effect1_dropShadow"/>
<feBlend mode="normal" in="SourceGraphic" in2="effect1_dropShadow" result="shape"/>
</filter>
</defs>
</svg>
